<svg width="204" height="42" viewBox="0 0 204 42" fill="none" xmlns="http://www.w3.org/2000/svg">
<path d="M14.6902 17.3613C15.1951 17.5514 15.6862 17.7335 16.1752 17.9177C17.6128 18.4622 19.0503 19.0028 20.4859 19.5572C20.6819 19.6324 20.8007 19.6027 20.9453 19.4562C23.5411 16.8346 26.2855 14.3813 29.2378 12.1636C30.7565 11.023 32.3386 9.97558 34.0197 9.08455C34.0969 9.04297 34.1662 8.96772 34.3068 9.00534C34.1761 9.14395 34.0613 9.27067 33.9445 9.39344C32.5089 10.8983 31.2535 12.5477 30.0655 14.2486C27.6538 17.6999 25.5351 21.3294 23.5708 25.0499C23.0659 26.0083 22.5749 26.9746 22.0798 27.9369C21.8898 28.3052 21.8937 28.3072 21.6719 27.9745C19.6364 24.9133 17.6009 21.8521 15.5634 18.7909C15.3218 18.4285 15.0763 18.0701 14.8367 17.7078C14.7733 17.6127 14.6803 17.5256 14.6922 17.3613H14.6902Z" fill="white"/>
<path d="M15.2862 20.0285C14.5813 20.2542 13.8309 20.377 13.0507 20.377C9.01134 20.377 5.72441 17.0901 5.72441 13.0507C5.72441 9.01134 9.01134 5.72441 13.0507 5.72441C17.0901 5.72441 20.377 9.01134 20.377 13.0507C20.377 14.8843 19.6998 16.5634 18.583 17.8484C19.2266 18.092 19.8721 18.3395 20.5156 18.587C22.3789 16.7178 24.2223 15.0288 26.0935 13.4784C26.0974 13.3358 26.1014 13.1933 26.1014 13.0507C26.1014 9.56378 24.7431 6.28675 22.2779 3.82155C19.8147 1.35833 16.5376 0 13.0507 0C9.56378 0 6.28675 1.35833 3.82353 3.82155C1.35833 6.28675 0 9.56576 0 13.0507C0 16.5356 1.35833 19.8147 3.82353 22.2799C6.28873 24.745 9.56576 26.1014 13.0527 26.1014C14.9753 26.1014 16.8346 25.6876 18.5296 24.9035C17.4485 23.2778 16.3693 21.6541 15.2882 20.0285H15.2862Z" fill="white"/>
<path d="M29.3069 14.4655V3.56323H34.8867V15.115C34.8867 18.8791 35.8609 20.2414 38.0668 20.2414C40.2726 20.2414 41.3121 18.8791 41.3121 15.115V3.56323H46.6979V14.4655C46.6979 21.6691 43.9733 25.0431 38.0668 25.0431C32.1602 25.0431 29.3069 21.6691 29.3069 14.4655Z" fill="black"/>
<path d="M51.2377 3.56323H56.8176V24.6531H51.2377V3.56323Z" fill="black"/>
<path d="M60.5826 14.2717C60.5826 7.19881 65.4496 3.17529 70.7701 3.17529C73.56 3.17529 75.8312 4.47224 77.3242 5.96522L74.4036 9.53531C73.366 8.62645 72.3265 7.97698 70.8988 7.97698C68.4336 7.97698 66.2912 10.2481 66.2912 14.0776C66.2912 17.9071 68.1089 20.2416 70.8335 20.2416C72.4552 20.2416 73.7541 19.3981 74.663 18.4239L77.5836 21.9286C75.7995 24.0057 73.366 25.0433 70.6394 25.0433C65.2536 25.0433 60.5806 21.4752 60.5806 14.2717H60.5826Z" fill="black"/>
<path d="M80.5035 3.56323H86.0833V11.4162H86.214L91.5345 3.56323H97.6351L91.3405 12.1291L98.8687 24.6531H92.7681L88.0951 16.5407L86.0833 19.3959V24.6531H80.5035V3.56323Z" fill="black"/>
<path d="M102.869 14.2707C102.869 7.15603 107.763 3.10962 113.117 3.10962C115.924 3.10962 118.207 4.41381 119.71 5.91706L116.772 9.507C115.729 8.59407 114.682 7.94198 113.247 7.94198C110.766 7.94198 108.614 10.2277 108.614 14.0785C108.614 17.9293 110.44 20.2803 113.182 20.2803C114.812 20.2803 116.12 19.4326 117.033 18.451L119.971 21.9757C118.176 24.0658 115.729 25.1092 112.986 25.1092C107.571 25.1092 102.872 21.5193 102.872 14.2742L102.869 14.2707Z" fill="black"/>
<path d="M120.685 14.0096C120.685 7.02537 124.666 3.10938 130.538 3.10938C136.411 3.10938 140.392 7.05969 140.392 14.0096C140.392 20.9596 136.411 25.1055 130.538 25.1055C124.666 25.1055 120.685 20.9939 120.685 14.0096ZM134.653 14.0096C134.653 10.1589 133.088 7.9383 130.542 7.9383C127.995 7.9383 126.43 10.1589 126.43 14.0096C126.43 17.8604 127.995 20.2766 130.542 20.2766C133.088 20.2766 134.653 17.8604 134.653 14.0096Z" fill="black"/>
<path d="M144.05 14.4667V3.50122H149.662V15.1188C149.662 18.9044 150.64 20.2738 152.86 20.2738C155.081 20.2738 156.124 18.9044 156.124 15.1188V3.50122H161.54V14.4667C161.54 21.7118 158.798 25.1061 152.86 25.1061C146.923 25.1061 144.05 21.7118 144.05 14.4667Z" fill="black"/>
<path d="M166.108 3.50465H171.85L176.548 12.9669L178.573 17.7306H178.704C178.443 15.4448 177.986 12.2496 177.986 9.63776V3.50122H183.337V24.7114H177.595L172.897 15.2149L170.872 10.4821H170.741C171.002 12.8982 171.459 15.9631 171.459 18.5749V24.7114H166.108V3.50122V3.50465Z" fill="black"/>
<path d="M192.082 8.20217H186.471V3.50366H203.308V8.20217H197.697V24.7139H192.085V8.20217H192.082Z" fill="black"/>
<path d="M0 29.4463H4.48092C7.15403 29.4463 9.45091 30.4244 9.45091 33.5134C9.45091 36.6023 7.1164 37.8062 4.55616 37.8062H3.23742V41.6852H0V29.4483V29.4463ZM4.40568 35.244C5.68679 35.244 6.28873 34.6044 6.28873 33.5114C6.28873 32.4184 5.57392 32.0046 4.33043 32.0046H3.23742V35.242H4.40568V35.244Z" fill="black"/>
<path d="M11.4467 29.4463H16.0781C18.7136 29.4463 20.9729 30.3492 20.9729 33.4005C20.9729 36.4518 18.7136 37.5805 16.0781 37.5805H14.6841V41.6852H11.4467V29.4483V29.4463ZM15.8524 35.0182C17.1335 35.0182 17.8107 34.4539 17.8107 33.3985C17.8107 32.3431 17.1335 32.0046 15.8524 32.0046H14.6861V35.0163H15.8524V35.0182ZM15.494 36.731L17.678 34.5846L21.6501 41.6832H18.0344L15.492 36.731H15.494Z" fill="black"/>
<path d="M22.7787 35.5075C22.7787 31.478 25.0756 29.2188 28.4636 29.2188C31.8515 29.2188 34.1484 31.4978 34.1484 35.5075C34.1484 39.5171 31.8515 41.9091 28.4636 41.9091C25.0756 41.9091 22.7787 39.5369 22.7787 35.5075ZM30.8377 35.5075C30.8377 33.2858 29.9348 32.0047 28.4655 32.0047C26.9963 32.0047 26.0934 33.2858 26.0934 35.5075C26.0934 37.7291 26.9963 39.1231 28.4655 39.1231C29.9348 39.1231 30.8377 37.7291 30.8377 35.5075Z" fill="black"/>
</svg>
