<svg width="500" height="214" viewBox="0 0 500 214" fill="none" xmlns="http://www.w3.org/2000/svg">
<g clip-path="url(#clip0_3003_1621)">
<path d="M6.71973 182.2C6.71973 161.47 20.9797 149.68 36.5797 149.68C44.7597 149.68 51.4097 153.48 55.7897 157.86L47.2297 168.32C44.1897 165.66 41.1397 163.76 36.9597 163.76C29.7297 163.76 23.4597 170.42 23.4597 181.64C23.4597 192.86 28.7797 199.71 36.7697 199.71C41.5197 199.71 45.3297 197.24 47.9897 194.38L56.5497 204.65C51.3197 210.74 44.1897 213.78 36.1997 213.78C20.4197 213.78 6.72973 203.32 6.72973 182.21L6.71973 182.2Z" fill="black"/>
<path d="M58.6299 181.44C58.6299 161.09 70.2299 149.68 87.3399 149.68C104.45 149.68 116.05 161.19 116.05 181.44C116.05 201.69 104.45 213.77 87.3399 213.77C70.2299 213.77 58.6299 201.79 58.6299 181.44ZM99.3299 181.44C99.3299 170.22 94.7699 163.75 87.3499 163.75C79.9299 163.75 75.3699 170.22 75.3699 181.44C75.3699 192.66 79.9299 199.7 87.3499 199.7C94.7699 199.7 99.3299 192.66 99.3299 181.44Z" fill="black"/>
<path d="M126.71 182.77V150.82H143.06V184.67C143.06 195.7 145.91 199.69 152.38 199.69C158.85 199.69 161.89 195.7 161.89 184.67V150.82H177.67V182.77C177.67 203.88 169.68 213.77 152.38 213.77C135.08 213.77 126.71 203.88 126.71 182.77Z" fill="black"/>
<path d="M190.979 150.83H207.71L221.399 178.4L227.299 192.28H227.679C226.919 185.62 225.589 176.31 225.589 168.7V150.82H241.179V212.62H224.449L210.759 184.95L204.859 171.16H204.479C205.239 178.2 206.57 187.13 206.57 194.74V212.62H190.979V150.82V150.83Z" fill="black"/>
<path d="M266.66 164.52H250.31V150.83H299.37V164.52H283.02V212.63H266.67V164.52H266.66Z" fill="black"/>
<path d="M327.51 150.83H350.14C363.64 150.83 375.24 155.77 375.24 171.37C375.24 186.97 363.45 193.05 350.52 193.05H343.86V212.64H327.51V150.84V150.83ZM349.76 180.11C356.23 180.11 359.27 176.88 359.27 171.36C359.27 165.84 355.66 163.75 349.38 163.75H343.86V180.1H349.76V180.11Z" fill="black"/>
<path d="M385.319 150.83H408.709C422.019 150.83 433.429 155.39 433.429 170.8C433.429 186.21 422.019 191.91 408.709 191.91H401.669V212.64H385.319V150.84V150.83ZM407.569 178.97C414.039 178.97 417.459 176.12 417.459 170.79C417.459 165.46 414.039 163.75 407.569 163.75H401.679V178.96H407.569V178.97ZM405.759 187.62L416.789 176.78L436.849 212.63H418.589L405.749 187.62H405.759Z" fill="black"/>
<path d="M442.55 181.44C442.55 161.09 454.15 149.68 471.26 149.68C488.37 149.68 499.97 161.19 499.97 181.44C499.97 201.69 488.37 213.77 471.26 213.77C454.15 213.77 442.55 201.79 442.55 181.44ZM483.25 181.44C483.25 170.22 478.69 163.75 471.27 163.75C463.85 163.75 459.29 170.22 459.29 181.44C459.29 192.66 463.85 199.7 471.27 199.7C478.69 199.7 483.25 192.66 483.25 181.44Z" fill="black"/>
<path d="M143.56 77.1V22.04H171.74V80.38C171.74 99.39 176.66 106.27 187.8 106.27C198.94 106.27 204.19 99.39 204.19 80.38V22.04H231.39V77.1C231.39 113.48 217.63 130.52 187.8 130.52C157.97 130.52 143.56 113.48 143.56 77.1Z" fill="black"/>
<path d="M254.319 22.04H282.499V128.55H254.319V22.04Z" fill="black"/>
<path d="M301.51 76.1201C301.51 40.4001 326.09 20.0801 352.96 20.0801C367.05 20.0801 378.52 26.6301 386.06 34.1701L371.31 52.2001C366.07 47.6101 360.82 44.3301 353.61 44.3301C341.16 44.3301 330.34 55.8001 330.34 75.1401C330.34 94.4801 339.52 106.27 353.28 106.27C361.47 106.27 368.03 102.01 372.62 97.0901L387.37 114.79C378.36 125.28 366.07 130.52 352.3 130.52C325.1 130.52 301.5 112.5 301.5 76.1201H301.51Z" fill="black"/>
<path d="M402.119 22.04H430.299V61.7H430.959L457.829 22.04H488.639L456.849 65.3L494.869 128.55H464.059L440.459 87.58L430.299 102V128.55H402.119V22.04Z" fill="black"/>
<path d="M74.1904 87.6801C76.7404 88.6401 79.2204 89.5601 81.6904 90.4901C88.9504 93.2401 96.2104 95.9701 103.46 98.7701C104.45 99.1501 105.05 99.0001 105.78 98.2601C118.89 85.0201 132.75 72.6301 147.66 61.4301C155.33 55.6701 163.32 50.3801 171.81 45.8801C172.2 45.6701 172.55 45.2901 173.26 45.4801C172.6 46.1801 172.02 46.8201 171.43 47.4401C164.18 55.0401 157.84 63.3701 151.84 71.9601C139.66 89.3901 128.96 107.72 119.04 126.51C116.49 131.35 114.01 136.23 111.51 141.09C110.55 142.95 110.57 142.96 109.45 141.28C99.1704 125.82 88.8904 110.36 78.6004 94.9001C77.3804 93.0701 76.1404 91.2601 74.9304 89.4301C74.6104 88.9501 74.1404 88.5101 74.2004 87.6801H74.1904Z" fill="#4857E4"/>
<path d="M77.2 101.15C73.64 102.29 69.85 102.91 65.91 102.91C45.51 102.91 28.91 86.31 28.91 65.91C28.91 45.51 45.51 28.91 65.91 28.91C86.31 28.91 102.91 45.51 102.91 65.91C102.91 75.17 99.49 83.65 93.85 90.14C97.1 91.37 100.36 92.62 103.61 93.87C113.02 84.43 122.33 75.9 131.78 68.07C131.8 67.35 131.82 66.63 131.82 65.91C131.82 48.3 124.96 31.75 112.51 19.3C100.07 6.86 83.52 0 65.91 0C48.3 0 31.75 6.86 19.31 19.3C6.86 31.75 0 48.31 0 65.91C0 83.51 6.86 100.07 19.31 112.52C31.76 124.97 48.31 131.82 65.92 131.82C75.63 131.82 85.02 129.73 93.58 125.77C88.12 117.56 82.67 109.36 77.21 101.15H77.2Z" fill="#4857E4"/>
</g>
<defs>
<clipPath id="clip0_3003_1621">
<rect width="499.98" height="213.77" fill="white"/>
</clipPath>
</defs>
</svg>
